{"title":"The Exquisite Corpse Project 2012 WEBRip 480p x264 AAC - VYTO [P","uid":8924177,"size":302030823,"categoryP":"video","categoryS":"movies","magnet":"?xt=urn:btih:61db5a52d83caa4b157ed34a503601bb5cb95c80&amp;dn=The+Exquisite+Corpse+Project+2012+WEBRip+480p+x264+AAC+-+VYTO+%5BP&amp;tr=udp%3A%2F%2Ftracker.openbittorrent.com%3A80&amp;tr=udp%3A%2F%2Fopen.demonii.com%3A1337&amp;tr=udp%3A%2F%2Ftracker.coppersurfer.tk%3A6969&amp;tr=udp%3A%2F%2Fexodus.desync.com%3A6969","seeders":1,"leechers":0,"uploader":"ValidusVyto","files":-1,"time":1379326454,"description":"_______ Visit us at our Semi Public Bittorrent Community ________\n  &lt;a href=&quot;\nhttp://p2pdl.com&quot; rel=&quot;nofollow&quot; target=&quot;_NEW&quot;&gt;\nhttp://p2pdl.com&lt;/a&gt;  _____________________________ &lt;a href=&quot; http://p2pdl.com&quot; rel=&quot;nofollow&quot; target=&quot;_NEW&quot;&gt; http://p2pdl.com&lt;/a&gt;\n\n\nThe Exquisite Corpse Project 2012 WEBRip 480p x264 AAC - VYTO\n\n\nGenre: Comedy  \nPlot: A first-of-its-kind comedy about five writers \nwho are challenged to each write fifteen minutes \nof a movie, after having read only the previous \nfive pages of the script.\nDirector: Ben Popik\nStars: Caleb Bark, Megan Raye Manzi, Julia Frey\n\nInfo: &lt;a href=&quot;\nhttp://www.imdb.com/title/tt2093256/&quot; rel=&quot;nofollow&quot; target=&quot;_NEW&quot;&gt;\nhttp://www.imdb.com/title/tt2093256/&lt;/a&gt;\n\nGeneral\nFormat                         : MPEG-4\nFile size                      : 284 MiB\nDuration                       : 1h 22mn\nOverall bit rate mode          : Variable\nOverall bit rate               : 482 Kbps\n\nVideo\nFormat                         : AVC\nBit rate                       : 439 Kbps\nWidth                          : 720 pixels\nHeight                         : 400 pixels\nDisplay aspect ratio           : 16:9\nFrame rate mode                : Constant\nFrame rate                     : 23.976 fps\nColor space                    : YUV\nChroma subsampling             : 4:2:0\nBit depth                      : 10 bits\nStream size                    : 259 MiB (91%)\nWriting library                : x264 core 138 r2358 9e941d1\n\nAudio\nFormat                         : AAC\nBit rate                       : 39.9 Kbps\nChannel(s)                     : 2 channels\nChannel positions              : Front: L R\nSampling rate                  : 44.1 KHz / 22.05 KHz\nStream size                    : 23.5 MiB (8%)\nLanguage                       : English\n\n\nSubtitle                       : No\n\nSource                         : 720p.WEB-DL.H264-HDMKV\n &lt;a href=&quot;\nhttp://ultraimg.com/images/704Jv.png&quot; rel=&quot;nofollow&quot; target=&quot;_NEW&quot;&gt;\nhttp://ultraimg.com/images/704Jv.png&lt;/a&gt; &lt;a href=&quot;\nhttp://ultraimg.com/images/mvP0l.png&quot; rel=&quot;nofollow&quot; target=&quot;_NEW&quot;&gt;\nhttp://ultraimg.com/images/mvP0l.png&lt;/a&gt; &lt;a href=&quot;\nhttp://ultraimg.com/images/8g0Lp.png&quot; rel=&quot;nofollow&quot; target=&quot;_NEW&quot;&gt;\nhttp://ultraimg.com/images/8g0Lp.png&lt;/a&gt; &lt;a href=&quot;\nhttp://ultraimg.com/images/cyh2Q.png&quot; rel=&quot;nofollow&quot; target=&quot;_NEW&quot;&gt;\nhttp://ultraimg.com/images/cyh2Q.png&lt;/a&gt; &lt;a href=&quot;\nhttp://ultraimg.com/images/eHlF.png&quot; rel=&quot;nofollow&quot; target=&quot;_NEW&quot;&gt;\nhttp://ultraimg.com/images/eHlF.png&lt;/a&gt; &lt;a href=&quot;\nhttp://ultraimg.com/images/MB41J.png&quot; rel=&quot;nofollow&quot; target=&quot;_NEW&quot;&gt;\nhttp://ultraimg.com/images/MB41J.png&lt;/a&gt;\n\n----------------------------------------------------------------------------------------------------\n\n\nEncoded using revolutionary 10bit encoding, which enables us to provide you more crispier \nand sharper images at small sizes, just make sure you follow our instructions without a fault.\nRecommend to you to use latest version of VLC player. Install K-Lite Codec Pack or shark007 codecs\nin case of any kind of problem in playback (For non-VLC Media Player users). Alternatively, install\nCore AVC codecs, the fastest decoder that there is coupled with Community Center Codec Pack and play\non Windows Media Player Classic. Check sample to be sure.\nEnjoy!\n\nEncoder Notes:Looking For Early Access To Anything You Can Provide DVDScr, R5, DVDR, BluRay, Direct\nAudio, Music Releases and Seedboxes. We require dedicated servers, so as to do more \nand fast releases of movies.\nIf You Got anything to offer please contact us at &quot;&lt;a class=&quot;__cf_email__&quot; href=&quot;/cdn-cgi/l/email-protection&quot; data-cfemail=&quot;2a5a584d6a425f594204494547&quot;&gt;[email&amp;#160;protected]&lt;/a&gt;&lt;script cf-hash='f9e31' type=&quot;text/javascript&quot;&gt;\n/* &lt;![CDATA[ */!function(){try{var t=&quot;currentScript&quot;in document?document.currentScript:function(){for(var t=document.getElementsByTagName(&quot;script&quot;),e=t.length;e--;)if(t[e].getAttribute(&quot;cf-hash&quot;))return t[e]}();if(t&amp;&amp;t.previousSibling){var e,r,n,i,c=t.previousSibling,a=c.getAttribute(&quot;data-cfemail&quot;);if(a){for(e=&quot;&quot;,r=parseInt(a.substr(0,2),16),n=2;a.length-n;n+=2)i=parseInt(a.substr(n,2),16)^r,e+=String.fromCharCode(i);e=document.createTextNode(e),c.parentNode.replaceChild(e,c)}}}catch(u){}}();/* ]]&gt; */&lt;/script&gt;&quot;.\n\n\nFacebook Fan Page:  \nSearch P2PDL on FB and hit like!!!\n\nFor more of our team uploads visit @                                           &lt;a href=&quot;\nhttp://thepiratebay.se/user/vitamin_x&quot; rel=&quot;nofollow&quot; target=&quot;_NEW&quot;&gt;\nhttp://thepiratebay.se/user/vitamin_x&lt;/a&gt;\t","torrent":{"xt":"urn:btih:61db5a52d83caa4b157ed34a503601bb5cb95c80","amp;dn":"The+Exquisite+Corpse+Project+2012+WEBRip+480p+x264+AAC+-+VYTO+%5BP","amp;tr":["udp%3A%2F%2Ftracker.openbittorrent.com%3A80","udp%3A%2F%2Fopen.demonii.com%3A1337","udp%3A%2F%2Ftracker.coppersurfer.tk%3A6969","udp%3A%2F%2Fexodus.desync.com%3A6969"],"infoHash":"61db5a52d83caa4b157ed34a503601bb5cb95c80","infoHashBuffer":{"type":"Buffer","data":[97,219,90,82,216,60,170,75,21,126,211,74,80,54,1,187,92,185,92,128]},"announce":[],"urlList":[]}}